<svg width="1280" height="720" xmlns="http://www.w3.org/2000/svg" xmlns:xlink="http://www.w3.org/1999/xlink" overflow="hidden"><defs><filter id="fx0" x="-10%" y="-10%" width="120%" height="120%" filterUnits="userSpaceOnUse" primitiveUnits="userSpaceOnUse"><feComponentTransfer color-interpolation-filters="sRGB"><feFuncR type="discrete" tableValues="0 0"/><feFuncG type="discrete" tableValues="0 0"/><feFuncB type="discrete" tableValues="0 0"/><feFuncA type="linear" slope="0.4" intercept="0"/></feComponentTransfer><feGaussianBlur stdDeviation="5.56367 5.55556"/></filter><linearGradient x1="992.5" y1="293" x2="992.5" y2="652" gradientUnits="userSpaceOnUse" spreadMethod="reflect" id="fill1"><stop offset="0" stop-color="#3A64F2"/><stop offset="0.01" stop-color="#3963F1"/><stop offset="0.02" stop-color="#3963F1"/><stop offset="0.03" stop-color="#3963F1"/><stop offset="0.04" stop-color="#3963F1"/><stop offset="0.05" stop-color="#3963F1"/><stop offset="0.06" stop-color="#3963F1"/><stop offset="0.07" stop-color="#3963F1"/><stop offset="0.08" stop-color="#3963F1"/><stop offset="0.09" stop-color="#3963F0"/><stop offset="0.1" stop-color="#3963F0"/><stop offset="0.11" stop-color="#3963F0"/><stop offset="0.12" stop-color="#3962F0"/><stop offset="0.13" stop-color="#3862EF"/><stop offset="0.14" stop-color="#3862EF"/><stop offset="0.15" stop-color="#3862EF"/><stop offset="0.16" stop-color="#3862EE"/><stop offset="0.17" stop-color="#3861EE"/><stop offset="0.18" stop-color="#3861ED"/><stop offset="0.19" stop-color="#3761ED"/><stop offset="0.2" stop-color="#3761ED"/><stop offset="0.21" stop-color="#3760EC"/><stop offset="0.22" stop-color="#3760EC"/><stop offset="0.23" stop-color="#3660EB"/><stop offset="0.24" stop-color="#365FEB"/><stop offset="0.25" stop-color="#365FEA"/><stop offset="0.26" stop-color="#365FE9"/><stop offset="0.27" stop-color="#355EE9"/><stop offset="0.28" stop-color="#355EE8"/><stop offset="0.29" stop-color="#355EE8"/><stop offset="0.3" stop-color="#345DE7"/><stop offset="0.31" stop-color="#345DE6"/><stop offset="0.32" stop-color="#345CE6"/><stop offset="0.33" stop-color="#335CE5"/><stop offset="0.34" stop-color="#335BE4"/><stop offset="0.35" stop-color="#335BE3"/><stop offset="0.36" stop-color="#325BE3"/><stop offset="0.37" stop-color="#325AE2"/><stop offset="0.38" stop-color="#325AE1"/><stop offset="0.39" stop-color="#3159E0"/><stop offset="0.4" stop-color="#3159DF"/><stop offset="0.41" stop-color="#3058DF"/><stop offset="0.42" stop-color="#3058DE"/><stop offset="0.43" stop-color="#2F57DD"/><stop offset="0.44" stop-color="#2F56DC"/><stop offset="0.45" stop-color="#2F56DB"/><stop offset="0.46" stop-color="#2E55DA"/><stop offset="0.47" stop-color="#2E55D9"/><stop offset="0.48" stop-color="#2D54D8"/><stop offset="0.49" stop-color="#2D53D7"/><stop offset="0.5" stop-color="#2C53D6"/><stop offset="0.51" stop-color="#2C52D5"/><stop offset="0.52" stop-color="#2B52D4"/><stop offset="0.53" stop-color="#2B51D3"/><stop offset="0.54" stop-color="#2A50D2"/><stop offset="0.55" stop-color="#2A50D1"/><stop offset="0.56" stop-color="#294FCF"/><stop offset="0.57" stop-color="#284ECE"/><stop offset="0.58" stop-color="#284ECD"/><stop offset="0.59" stop-color="#274DCC"/><stop offset="0.6" stop-color="#274CCB"/><stop offset="0.61" stop-color="#264BCA"/><stop offset="0.62" stop-color="#264BC8"/><stop offset="0.63" stop-color="#254AC7"/><stop offset="0.64" stop-color="#2449C6"/><stop offset="0.65" stop-color="#2448C4"/><stop offset="0.66" stop-color="#2348C3"/><stop offset="0.67" stop-color="#2247C2"/><stop offset="0.68" stop-color="#2246C0"/><stop offset="0.69" stop-color="#2145BF"/><stop offset="0.7" stop-color="#2044BE"/><stop offset="0.71" stop-color="#2043BC"/><stop offset="0.72" stop-color="#1F43BB"/><stop offset="0.73" stop-color="#1E42BA"/><stop offset="0.74" stop-color="#1E41B8"/><stop offset="0.75" stop-color="#1D40B7"/><stop offset="0.76" stop-color="#1C3FB5"/><stop offset="0.77" stop-color="#1B3EB4"/><stop offset="0.78" stop-color="#1B3DB2"/><stop offset="0.79" stop-color="#1A3CB1"/><stop offset="0.8" stop-color="#193BAF"/><stop offset="0.81" stop-color="#183AAD"/><stop offset="0.82" stop-color="#1839AC"/><stop offset="0.83" stop-color="#1738AA"/><stop offset="0.84" stop-color="#1638A9"/><stop offset="0.85" stop-color="#1537A7"/><stop offset="0.86" stop-color="#1536A5"/><stop offset="0.87" stop-color="#1435A4"/><stop offset="0.88" stop-color="#1334A2"/><stop offset="0.89" stop-color="#1232A0"/><stop offset="0.9" stop-color="#11319F"/><stop offset="0.91" stop-color="#10309D"/><stop offset="0.92" stop-color="#102F9B"/><stop offset="0.93" stop-color="#0F2E99"/><stop offset="0.94" stop-color="#0E2D98"/><stop offset="0.95" stop-color="#0D2C96"/><stop offset="0.96" stop-color="#0C2B94"/><stop offset="0.97" stop-color="#0B2A92"/><stop offset="0.98" stop-color="#0A2990"/><stop offset="0.99" stop-color="#09288E"/><stop offset="1" stop-color="#09278D"/></linearGradient><clipPath id="clip2"><rect x="0" y="0" width="343" height="206"/></clipPath></defs><g><rect x="0" y="0" width="1280" height="720" fill="#FFFFFF"/><text font-family="Montserrat,Montserrat_MSFontService,sans-serif" font-weight="700" font-size="53" transform="translate(804.997 189)">Management</text><text font-family="Montserrat,Montserrat_MSFontService,sans-serif" font-weight="700" font-size="53" transform="translate(856.917 253)">Summary</text><rect x="754" y="293" width="477" height="359" fill="url(#fill1)"/><g filter="url(#fx0)" transform="matrix(1.99708 0 0 2 24 14)"><g clip-path="url(#clip2)"><path d="M17.5255 46.0006C17.5255 30.2602 30.3043 17.5 46.0677 17.5L296.932 17.5C312.696 17.5 325.474 30.2602 325.474 46.0006L325.474 159.999C325.474 175.74 312.696 188.5 296.932 188.5L46.0677 188.5C30.3043 188.5 17.5255 175.74 17.5255 159.999Z" fill="#FFFFFF" fill-rule="evenodd"/></g></g><path d="M79 106.001C79 74.5203 104.52 49 136.001 49L636.999 49C668.48 49 694 74.5203 694 106.001L694 333.999C694 365.48 668.48 391 636.999 391L136.001 391C104.52 391 79 365.48 79 333.999Z" fill="#FFFFFF" fill-rule="evenodd"/><g><path d="M272.5 93.5001 272.5 300.5M346.5 93.5001 346.5 300.5M419.5 93.5001 419.5 300.5M493.5 93.5001 493.5 300.5M567.5 93.5001 567.5 300.5M641.5 93.5001 641.5 300.5" stroke="#D9D9D9" stroke-linejoin="round" stroke-miterlimit="10" fill="none"/></g><g><path d="M516 291 198 291 198 280 516 280ZM383 239 198 239 198 228 383 228ZM457 187 198 187 198 176 457 176ZM531 135 198 135 198 125 531 125Z" fill="#FDBE17"/></g><g><path d="M376 280 198 280 198 269 376 269ZM523 228 198 228 198 217 523 217ZM331 176 198 176 198 166 331 166ZM405 125 198 125 198 114 405 114Z" fill="#F35564"/></g><g><path d="M346 269 198 269 198 259 346 259ZM346 217 198 217 198 207 346 207ZM420 166 198 166 198 155 420 155ZM568 114 198 114 198 103 568 103Z" fill="#3A64F2"/></g><g><path d="M0 0 0.000104987 207" stroke="#D9D9D9" stroke-linejoin="round" stroke-miterlimit="10" fill="none" fill-rule="evenodd" transform="matrix(1 0 0 -1 198.5 300.5)"/></g><g><text fill="#595959" font-family="Open Sans,Open Sans_MSFontService,sans-serif" font-weight="400" font-size="13" transform="translate(194.589 324)">0</text></g><g><text fill="#595959" font-family="Open Sans,Open Sans_MSFontService,sans-serif" font-weight="400" font-size="13" transform="translate(268.442 324)">1</text></g><g><text fill="#595959" font-family="Open Sans,Open Sans_MSFontService,sans-serif" font-weight="400" font-size="13" transform="translate(342.295 324)">2</text></g><g><text fill="#595959" font-family="Open Sans,Open Sans_MSFontService,sans-serif" font-weight="400" font-size="13" transform="translate(416.148 324)">3</text></g><g><text fill="#595959" font-family="Open Sans,Open Sans_MSFontService,sans-serif" font-weight="400" font-size="13" transform="translate(490.001 324)">4</text></g><g><text fill="#595959" font-family="Open Sans,Open Sans_MSFontService,sans-serif" font-weight="400" font-size="13" transform="translate(563.854 324)">5</text></g><g><text fill="#595959" font-family="Open Sans,Open Sans_MSFontService,sans-serif" font-weight="400" font-size="13" transform="translate(637.707 324)">6</text></g><g><text fill="#595959" font-family="Montserrat,Montserrat_MSFontService,sans-serif" font-weight="400" font-size="13" transform="translate(116.667 279)">Category 1</text></g><g><text fill="#595959" font-family="Montserrat,Montserrat_MSFontService,sans-serif" font-weight="400" font-size="13" transform="translate(113.907 227)">Category 2</text></g><g><text fill="#595959" font-family="Montserrat,Montserrat_MSFontService,sans-serif" font-weight="400" font-size="13" transform="translate(113.96 175)">Category 3</text></g><g><text fill="#595959" font-family="Montserrat,Montserrat_MSFontService,sans-serif" font-weight="400" font-size="13" transform="translate(112.667 123)">Category 4</text></g><g><rect x="280" y="345" width="8" height="8" fill="#3A64F2"/></g><g><text fill="#262626" font-family="Montserrat,Montserrat_MSFontService,sans-serif" font-weight="400" font-size="13" transform="translate(290.675 353)">Series 3</text></g><g><rect x="355" y="345" width="8" height="8" fill="#F35564"/></g><g><text fill="#262626" font-family="Montserrat,Montserrat_MSFontService,sans-serif" font-weight="400" font-size="13" transform="translate(365.754 353)">Series 2</text></g><g><rect x="430" y="345" width="8" height="8" fill="#FDBE17"/></g><g><text fill="#262626" font-family="Montserrat,Montserrat_MSFontService,sans-serif" font-weight="400" font-size="13" transform="translate(440.886 353)">Series 1</text></g><g><path d="M145.228 534.077C129.047 503.645 140.599 465.857 171.032 449.676 201.464 433.495 239.252 445.048 255.433 475.48 263.203 490.094 264.85 507.196 260.011 523.024L239.123 516.638C245.673 495.214 233.615 472.536 212.19 465.986 190.766 459.436 168.088 471.494 161.538 492.918 158.393 503.207 159.463 514.323 164.514 523.822Z" stroke="#FFFFFF" stroke-width="2" stroke-linejoin="round" stroke-miterlimit="10" fill="#3A64F2" fill-rule="evenodd"/></g><g><path d="M260.011 523.024C249.934 555.985 215.045 574.536 182.084 564.459 166.256 559.62 152.998 548.691 145.228 534.077L164.514 523.822C175.031 543.603 199.593 551.113 219.374 540.595 228.874 535.544 235.977 526.927 239.123 516.638Z" stroke="#FFFFFF" stroke-width="2" stroke-linejoin="round" stroke-miterlimit="10" fill="#D9D9D9" fill-rule="evenodd"/></g><text font-family="Montserrat,Montserrat_MSFontService,sans-serif" font-weight="700" font-size="27" transform="translate(176.893 514)">50%</text><text fill="#262626" font-family="Montserrat,Montserrat_MSFontService,sans-serif" font-weight="400" font-size="12" transform="translate(134.638 626)">Maecenas non</text><text fill="#262626" font-family="Montserrat,Montserrat_MSFontService,sans-serif" font-weight="400" font-size="12" transform="translate(225.471 626)">laoreet</text><text fill="#262626" font-family="Montserrat,Montserrat_MSFontService,sans-serif" font-weight="400" font-size="12" transform="translate(270.304 626)">odio</text><text fill="#262626" font-family="Montserrat,Montserrat_MSFontService,sans-serif" font-weight="400" font-size="12" transform="translate(296.638 626)">. Vel</text><text fill="#262626" font-family="Montserrat,Montserrat_MSFontService,sans-serif" font-weight="400" font-size="12" transform="translate(134.638 648)">vestibulum libero pharetra vel</text><text fill="#262626" font-family="Montserrat,Montserrat_MSFontService,sans-serif" font-weight="400" font-size="12" transform="translate(314.471 648)">.</text><text font-family="Montserrat,Montserrat_MSFontService,sans-serif" font-weight="700" font-size="21" transform="translate(134.637 601)">Company 01</text><g><path d="M501.571 480.602C511.071 513.733 491.914 548.293 458.783 557.793 425.651 567.294 391.091 548.137 381.591 515.005 378.571 504.475 378.377 493.335 381.027 482.706L402.221 487.99C396.801 509.728 410.03 531.743 431.767 537.163 453.505 542.583 475.521 529.355 480.941 507.617 482.663 500.708 482.537 493.467 480.574 486.622Z" stroke="#FFFFFF" stroke-width="2" stroke-linejoin="round" stroke-miterlimit="10" fill="#F35564" fill-rule="evenodd"/></g><g><path d="M381.027 482.706C389.365 449.263 423.236 428.911 456.679 437.25 478.312 442.644 495.425 459.169 501.571 480.602L480.574 486.622C474.399 465.087 451.935 452.635 430.4 458.81 416.469 462.805 405.727 473.928 402.221 487.99Z" stroke="#FFFFFF" stroke-width="2" stroke-linejoin="round" stroke-miterlimit="10" fill="#D9D9D9" fill-rule="evenodd"/></g><text font-family="Montserrat,Montserrat_MSFontService,sans-serif" font-weight="700" font-size="27" transform="translate(417.995 507)">7</text><text font-family="Montserrat,Montserrat_MSFontService,sans-serif" font-weight="700" font-size="27" transform="translate(434.495 507)">0%</text><text fill="#262626" font-family="Montserrat,Montserrat_MSFontService,sans-serif" font-weight="400" font-size="12" transform="translate(373.256 626)">Maecenas non</text><text fill="#262626" font-family="Montserrat,Montserrat_MSFontService,sans-serif" font-weight="400" font-size="12" transform="translate(464.089 626)">laoreet</text><text fill="#262626" font-family="Montserrat,Montserrat_MSFontService,sans-serif" font-weight="400" font-size="12" transform="translate(508.923 626)">odio</text><text fill="#262626" font-family="Montserrat,Montserrat_MSFontService,sans-serif" font-weight="400" font-size="12" transform="translate(535.256 626)">. Vel</text><text fill="#262626" font-family="Montserrat,Montserrat_MSFontService,sans-serif" font-weight="400" font-size="12" transform="translate(373.256 648)">vestibulum libero pharetra vel</text><text fill="#262626" font-family="Montserrat,Montserrat_MSFontService,sans-serif" font-weight="400" font-size="12" transform="translate(553.089 648)">.</text><text font-family="Montserrat,Montserrat_MSFontService,sans-serif" font-weight="700" font-size="21" transform="translate(370.486 600)">Company 02</text><text fill="#FFFFFF" font-family="Montserrat,Montserrat_MSFontService,sans-serif" font-weight="400" font-size="16" transform="translate(785.141 375)">Maecenas non</text><text fill="#FFFFFF" font-family="Montserrat,Montserrat_MSFontService,sans-serif" font-weight="400" font-size="16" transform="translate(906.474 375)">laoreet</text><text fill="#FFFFFF" font-family="Montserrat,Montserrat_MSFontService,sans-serif" font-weight="400" font-size="16" transform="translate(966.641 375)">odio</text><text fill="#FFFFFF" font-family="Montserrat,Montserrat_MSFontService,sans-serif" font-weight="400" font-size="16" transform="translate(1001.81 375)">. Vel vestibulum libero</text><text fill="#FFFFFF" font-family="Montserrat,Montserrat_MSFontService,sans-serif" font-weight="400" font-size="16" transform="translate(785.141 403)">pharetra vel</text><text fill="#FFFFFF" font-family="Montserrat,Montserrat_MSFontService,sans-serif" font-weight="400" font-size="16" transform="translate(881.474 403)">.</text><text fill="#FFFFFF" font-family="Montserrat,Montserrat_MSFontService,sans-serif" font-weight="700" font-size="21" transform="translate(785.141 341)">Background</text><text fill="#FFFFFF" font-family="Montserrat,Montserrat_MSFontService,sans-serif" font-weight="400" font-size="16" transform="translate(785.141 484)">Maecenas non</text><text fill="#FFFFFF" font-family="Montserrat,Montserrat_MSFontService,sans-serif" font-weight="400" font-size="16" transform="translate(906.474 484)">laoreet</text><text fill="#FFFFFF" font-family="Montserrat,Montserrat_MSFontService,sans-serif" font-weight="400" font-size="16" transform="translate(966.641 484)">odio</text><text fill="#FFFFFF" font-family="Montserrat,Montserrat_MSFontService,sans-serif" font-weight="400" font-size="16" transform="translate(1001.81 484)">. Vel vestibulum libero</text><text fill="#FFFFFF" font-family="Montserrat,Montserrat_MSFontService,sans-serif" font-weight="400" font-size="16" transform="translate(785.141 512)">pharetra vel</text><text fill="#FFFFFF" font-family="Montserrat,Montserrat_MSFontService,sans-serif" font-weight="400" font-size="16" transform="translate(881.474 512)">.</text><text fill="#FFFFFF" font-family="Montserrat,Montserrat_MSFontService,sans-serif" font-weight="700" font-size="21" transform="translate(785.141 450)">Capabilities</text><text fill="#FFFFFF" font-family="Montserrat,Montserrat_MSFontService,sans-serif" font-weight="400" font-size="16" transform="translate(785.141 595)">Maecenas non</text><text fill="#FFFFFF" font-family="Montserrat,Montserrat_MSFontService,sans-serif" font-weight="400" font-size="16" transform="translate(906.474 595)">laoreet</text><text fill="#FFFFFF" font-family="Montserrat,Montserrat_MSFontService,sans-serif" font-weight="400" font-size="16" transform="translate(966.641 595)">odio</text><text fill="#FFFFFF" font-family="Montserrat,Montserrat_MSFontService,sans-serif" font-weight="400" font-size="16" transform="translate(1001.81 595)">. Vel vestibulum libero</text><text fill="#FFFFFF" font-family="Montserrat,Montserrat_MSFontService,sans-serif" font-weight="400" font-size="16" transform="translate(785.141 623)">pharetra vel</text><text fill="#FFFFFF" font-family="Montserrat,Montserrat_MSFontService,sans-serif" font-weight="400" font-size="16" transform="translate(881.474 623)">.</text><text fill="#FFFFFF" font-family="Montserrat,Montserrat_MSFontService,sans-serif" font-weight="700" font-size="21" transform="translate(785.141 561)">Accreditation</text></g></svg>